<?xml version="1.0" encoding="UTF-8"?>
<svg version="1.1" xmlns="http://www.w3.org/2000/svg" width="150" height="150">
<path d="M0 0 C1.38445313 -0.00193359 1.38445313 -0.00193359 2.796875 -0.00390625 C3.76367188 -0.00003906 4.73046875 0.00382813 5.7265625 0.0078125 C6.685625 0.00394531 7.6446875 0.00007812 8.6328125 -0.00390625 C9.55835937 -0.00261719 10.48390625 -0.00132813 11.4375 0 C12.2836084 0.00112793 13.1297168 0.00225586 14.00146484 0.00341797 C16.3515625 0.1328125 16.3515625 0.1328125 18.53369141 0.70361328 C20.43582561 1.35766872 20.43582561 1.35766872 22.3515625 0.1328125 C25.69812695 -0.18799637 29.05401881 -0.19172951 32.4140625 -0.2421875 C33.33123047 -0.27957031 34.24839844 -0.31695312 35.19335938 -0.35546875 C42.07910937 -0.44330964 46.74714761 1.11461079 52.3515625 5.1328125 C53.3415625 6.1228125 53.3415625 6.1228125 54.3515625 7.1328125 C56.21471208 7.63018475 56.21471208 7.63018475 58.3515625 7.9453125 C70.39925209 10.48268764 76.9139588 16.8098434 83.4765625 26.8203125 C83.95996094 27.573125 84.44335938 28.3259375 84.94140625 29.1015625 C86.42138764 31.36174428 86.42138764 31.36174428 89.0390625 33.8203125 C94.43525259 39.21650259 95.03036663 45.11855697 95.04296875 52.38525391 C94.72822601 60.7599144 91.10263133 66.45715816 86.3515625 73.1328125 C85.61164063 74.19113281 84.87171875 75.24945313 84.109375 76.33984375 C82.22804187 78.9688862 80.29764455 81.55174124 78.3515625 84.1328125 C77.6915625 85.1228125 77.0315625 86.1128125 76.3515625 87.1328125 C75.6915625 87.1328125 75.0315625 87.1328125 74.3515625 87.1328125 C74.13242188 87.67808594 73.91328125 88.22335938 73.6875 88.78515625 C71.91602946 91.89817903 69.51890384 94.21652969 66.9765625 96.6953125 C66.49445313 97.17677734 66.01234375 97.65824219 65.515625 98.15429688 C63.43746996 100.2070397 61.49857559 102.04230527 59.00390625 103.578125 C57.03141786 105.09220377 57.03141786 105.09220377 57.06640625 108.05859375 C57.13988281 109.17621094 57.21335937 110.29382813 57.2890625 111.4453125 C57.44118052 116.51027916 57.46434943 119.90831596 54.3515625 124.1328125 C45.50203496 131.61223552 33.07013108 130.63210178 22.14599609 130.57885742 C19.48846795 130.57035061 16.83309816 130.59918373 14.17578125 130.63085938 C-5.05912239 130.71461044 -5.05912239 130.71461044 -13.6484375 126.1328125 C-16.12899426 123.46240366 -17.49423918 121.59540747 -18.6484375 118.1328125 C-18.54144531 117.2253125 -18.43445312 116.3178125 -18.32421875 115.3828125 C-17.70484846 109.8417794 -17.56501918 106.49133077 -21.140625 102.0078125 C-24.13789319 99.16646067 -27.39887704 96.6770104 -30.6484375 94.1328125 C-33.54296875 91.4453125 -33.54296875 91.4453125 -35.6484375 89.1328125 C-35.6484375 88.4728125 -35.6484375 87.8128125 -35.6484375 87.1328125 C-36.3084375 87.1328125 -36.9684375 87.1328125 -37.6484375 87.1328125 C-43.85335287 79.86461351 -48.83515956 71.36961911 -53.6484375 63.1328125 C-54.04289062 62.51535156 -54.43734375 61.89789063 -54.84375 61.26171875 C-57.28658043 54.79889066 -56.85436409 45.39970392 -54.48046875 38.96875 C-51.77777115 34.36930061 -48.45869291 30.84781153 -44.6484375 27.1328125 C-43.66699675 25.66887573 -42.71066836 24.18793942 -41.7734375 22.6953125 C-35.83363096 13.61977053 -28.38616787 9.87532898 -18.0234375 7.1953125 C-14.3302274 6.03263525 -11.55570622 4.37790004 -8.34765625 2.25390625 C-5.36450044 0.2857092 -3.54930629 0.00474416 0 0 Z " fill="#F6C87E" transform="translate(55.6484375,9.8671875)"/>
<path d="M0 0 C1.38445313 -0.00193359 1.38445313 -0.00193359 2.796875 -0.00390625 C3.76367188 -0.00003906 4.73046875 0.00382813 5.7265625 0.0078125 C6.685625 0.00394531 7.6446875 0.00007812 8.6328125 -0.00390625 C9.55835937 -0.00261719 10.48390625 -0.00132813 11.4375 0 C12.2836084 0.00112793 13.1297168 0.00225586 14.00146484 0.00341797 C16.3515625 0.1328125 16.3515625 0.1328125 18.53369141 0.70361328 C20.43582561 1.35766872 20.43582561 1.35766872 22.3515625 0.1328125 C25.69812695 -0.18799637 29.05401881 -0.19172951 32.4140625 -0.2421875 C33.33123047 -0.27957031 34.24839844 -0.31695312 35.19335938 -0.35546875 C42.07910937 -0.44330964 46.74714761 1.11461079 52.3515625 5.1328125 C53.3415625 6.1228125 53.3415625 6.1228125 54.3515625 7.1328125 C56.21471208 7.63018475 56.21471208 7.63018475 58.3515625 7.9453125 C70.39925209 10.48268764 76.9139588 16.8098434 83.4765625 26.8203125 C83.95996094 27.573125 84.44335938 28.3259375 84.94140625 29.1015625 C86.42138764 31.36174428 86.42138764 31.36174428 89.0390625 33.8203125 C94.43525259 39.21650259 95.03036663 45.11855697 95.04296875 52.38525391 C94.72822601 60.7599144 91.10263133 66.45715816 86.3515625 73.1328125 C85.61164063 74.19113281 84.87171875 75.24945313 84.109375 76.33984375 C82.22804187 78.9688862 80.29764455 81.55174124 78.3515625 84.1328125 C77.6915625 85.1228125 77.0315625 86.1128125 76.3515625 87.1328125 C75.6915625 87.1328125 75.0315625 87.1328125 74.3515625 87.1328125 C74.13242188 87.67808594 73.91328125 88.22335938 73.6875 88.78515625 C71.91602946 91.89817903 69.51890384 94.21652969 66.9765625 96.6953125 C66.49445313 97.17677734 66.01234375 97.65824219 65.515625 98.15429688 C63.43746996 100.2070397 61.49857559 102.04230527 59.00390625 103.578125 C57.03141786 105.09220377 57.03141786 105.09220377 57.06640625 108.05859375 C57.13988281 109.17621094 57.21335937 110.29382813 57.2890625 111.4453125 C57.44118052 116.51027916 57.46434943 119.90831596 54.3515625 124.1328125 C45.50203496 131.61223552 33.07013108 130.63210178 22.14599609 130.57885742 C19.48846795 130.57035061 16.83309816 130.59918373 14.17578125 130.63085938 C-5.05912239 130.71461044 -5.05912239 130.71461044 -13.6484375 126.1328125 C-16.12899426 123.46240366 -17.49423918 121.59540747 -18.6484375 118.1328125 C-18.54144531 117.2253125 -18.43445312 116.3178125 -18.32421875 115.3828125 C-17.70484846 109.8417794 -17.56501918 106.49133077 -21.140625 102.0078125 C-24.13789319 99.16646067 -27.39887704 96.6770104 -30.6484375 94.1328125 C-33.54296875 91.4453125 -33.54296875 91.4453125 -35.6484375 89.1328125 C-35.6484375 88.4728125 -35.6484375 87.8128125 -35.6484375 87.1328125 C-36.3084375 87.1328125 -36.9684375 87.1328125 -37.6484375 87.1328125 C-43.85335287 79.86461351 -48.83515956 71.36961911 -53.6484375 63.1328125 C-54.04289062 62.51535156 -54.43734375 61.89789063 -54.84375 61.26171875 C-57.28658043 54.79889066 -56.85436409 45.39970392 -54.48046875 38.96875 C-51.77777115 34.36930061 -48.45869291 30.84781153 -44.6484375 27.1328125 C-43.66699675 25.66887573 -42.71066836 24.18793942 -41.7734375 22.6953125 C-35.83363096 13.61977053 -28.38616787 9.87532898 -18.0234375 7.1953125 C-14.3302274 6.03263525 -11.55570622 4.37790004 -8.34765625 2.25390625 C-5.36450044 0.2857092 -3.54930629 0.00474416 0 0 Z M-11.6484375 11.1328125 C-11.15986806 17.82554451 -9.83334474 24.13372344 -8.2109375 30.6328125 C-7.77409059 32.41390345 -7.33788678 34.19515226 -6.90234375 35.9765625 C-6.58257568 37.27980469 -6.58257568 37.27980469 -6.25634766 38.609375 C-5.51938198 41.66852247 -4.83418844 44.73706966 -4.15991211 47.81054688 C-3.18063141 52.25680848 -2.1600853 56.69382458 -1.1484375 61.1328125 C3.16173863 80.04534289 3.16173863 80.04534289 4.9765625 88.9453125 C5.36714844 90.84216797 5.36714844 90.84216797 5.765625 92.77734375 C6.3515625 96.1328125 6.3515625 96.1328125 6.3515625 100.1328125 C5.3615625 100.4628125 4.3715625 100.7928125 3.3515625 101.1328125 C3.1659375 99.3384375 3.1659375 99.3384375 2.9765625 97.5078125 C2.65684398 94.92754893 2.24178309 92.80347428 1.4140625 90.3203125 C0.1959669 86.66602571 -0.42372134 83.0665134 -1.08203125 79.27734375 C-1.71237442 75.77785234 -2.41720196 72.3001118 -3.1484375 68.8203125 C-3.385625 67.68980469 -3.6228125 66.55929688 -3.8671875 65.39453125 C-4.58535765 62.15892082 -4.58535765 62.15892082 -5.6640625 59.20703125 C-6.81986376 55.59744557 -7.35990221 51.99508714 -7.8984375 48.2578125 C-9.67736572 36.69785682 -12.68257515 25.43503614 -15.6484375 14.1328125 C-22.59753671 13.85603472 -26.6440129 16.17644299 -32.3359375 19.8828125 C-35.37594137 22.84065411 -38.25123934 26.07716162 -39.6484375 30.1328125 C-37.67636765 35.7935726 -34.84894776 41.16512979 -32.2734375 46.5703125 C-31.79132812 47.59447266 -31.30921875 48.61863281 -30.8125 49.67382812 C-28.38063008 54.77877246 -25.80693767 59.43670575 -22.6484375 64.1328125 C-20.66868954 68.01786484 -18.89652563 72.00023652 -17.09179688 75.96875 C-14.90598095 80.69647665 -12.55491766 85.04730994 -9.58178711 89.33056641 C-8.6484375 91.1328125 -8.6484375 91.1328125 -8.6484375 95.1328125 C-10.6284375 95.6278125 -10.6284375 95.6278125 -12.6484375 96.1328125 C-12.76058594 95.24335937 -12.87273438 94.35390625 -12.98828125 93.4375 C-13.64249889 90.16254067 -14.53543163 88.11575984 -16.2109375 85.2578125 C-18.6912919 80.87761217 -21.03823347 76.45470333 -23.2734375 71.9453125 C-23.75719849 70.97150635 -23.75719849 70.97150635 -24.25073242 69.97802734 C-24.96773192 68.53391314 -25.68425487 67.08956226 -26.40039062 65.64501953 C-28.93048266 60.55216994 -31.47890199 55.46845628 -34.0234375 50.3828125 C-35.05214658 48.32555246 -36.08079624 46.2682627 -37.109375 44.2109375 C-37.55071777 43.32825195 -37.99206055 42.44556641 -38.44677734 41.53613281 C-39.5139974 39.40169271 -40.58121745 37.2672526 -41.6484375 35.1328125 C-46.52706194 37.22811915 -48.61871811 40.30729285 -50.6484375 45.1328125 C-52.47147927 52.6990316 -50.00741207 58.46258478 -46.12158203 64.86523438 C-38.34753411 77.08207224 -29.21300278 89.93301558 -16.9609375 97.9453125 C-13.51336239 100.51334877 -12.74449647 101.49037553 -12.09765625 105.81640625 C-12.05705497 108.5068097 -12.25228661 111.04875482 -12.4921875 113.7421875 C-12.64627792 117.08594952 -12.68895506 118.52514202 -10.6484375 121.1328125 C-8.72776904 122.22552985 -8.72776904 122.22552985 -6.4609375 122.8203125 C-5.72488281 123.05105469 -4.98882812 123.28179687 -4.23046875 123.51953125 C3.48132752 125.3512287 11.07708307 125.34937555 18.9765625 125.3828125 C20.17152344 125.4034375 21.36648437 125.4240625 22.59765625 125.4453125 C36.95217142 125.63595292 36.95217142 125.63595292 49.6875 119.8984375 C51.89949572 116.22216292 51.5059051 114.10019781 50.9765625 109.8828125 C50.71823824 105.79399301 50.70462049 102.94589526 53.359375 99.609375 C55.24801789 98.16195353 57.17879111 96.76842937 59.140625 95.421875 C69.22968684 88.22942946 76.78992153 77.48648661 83.3515625 67.1328125 C84.28548828 65.7096875 84.28548828 65.7096875 85.23828125 64.2578125 C89.08038899 57.95281518 90.85597071 52.50998462 89.3515625 45.1328125 C87.346509 40.30495818 85.21784582 37.2228188 80.3515625 35.1328125 C76.3195371 43.09549952 72.35906604 51.08180189 68.56665039 59.16186523 C64.97001362 66.82181495 61.28910265 74.23523462 56.890625 81.46875 C54.35456313 85.85858298 52.34119857 90.47504696 50.3515625 95.1328125 C49.3615625 95.1328125 48.3715625 95.1328125 47.3515625 95.1328125 C47.95019856 91.45617915 48.97622501 88.50829205 50.64453125 85.18359375 C51.11052734 84.25224609 51.57652344 83.32089844 52.05664062 82.36132812 C52.54583984 81.39904297 53.03503906 80.43675781 53.5390625 79.4453125 C54.00892578 78.50236328 54.47878906 77.55941406 54.96289062 76.58789062 C57.27173946 72.00484144 59.6682018 67.53686771 62.35546875 63.1640625 C65.67197707 57.73278861 68.39794462 52.0757982 71.1015625 46.3203125 C71.58238281 45.31033203 72.06320313 44.30035156 72.55859375 43.25976562 C73.83930858 40.55742165 75.11765652 37.85685258 76.3515625 35.1328125 C76.9688623 33.82824097 76.9688623 33.82824097 77.59863281 32.49731445 C77.84709961 31.71702881 78.09556641 30.93674316 78.3515625 30.1328125 C75.00637077 23.71004438 69.70786957 18.55543938 63.3515625 15.1328125 C61.0516162 14.71019591 61.0516162 14.71019591 58.6484375 14.5234375 C57.43945801 14.40790527 57.43945801 14.40790527 56.20605469 14.29003906 C55.59407227 14.2381543 54.98208984 14.18626953 54.3515625 14.1328125 C51.04897788 26.80540549 47.91202868 39.45036722 45.64550781 52.35424805 C44.85808417 56.78018822 43.83366849 60.87556977 42.3515625 65.1328125 C42.00157511 66.79201196 41.68859481 68.45947271 41.4140625 70.1328125 C40.63981137 74.58932886 39.78179659 79.01852013 38.8515625 83.4453125 C38.614375 84.57582031 38.3771875 85.70632812 38.1328125 86.87109375 C37.3515625 90.1328125 37.3515625 90.1328125 36.265625 93.37109375 C35.3478742 96.14395621 35.1811956 98.23657525 35.3515625 101.1328125 C34.0315625 101.1328125 32.7115625 101.1328125 31.3515625 101.1328125 C33.30771072 90.97748984 35.32758846 80.87675561 37.92089844 70.86328125 C39.04654543 66.47569061 39.99191759 62.0797324 40.8515625 57.6328125 C41.85419068 52.46250283 42.99201415 47.35978592 44.2890625 42.2578125 C44.4550293 41.60377441 44.62099609 40.94973633 44.79199219 40.27587891 C45.13380005 38.93062549 45.475762 37.58541122 45.81787109 36.24023438 C46.76490448 32.50062221 47.69224296 28.75676864 48.6015625 25.0078125 C48.77679443 24.30930176 48.95202637 23.61079102 49.13256836 22.89111328 C50.09452117 18.88919575 50.53093765 15.24562846 50.3515625 11.1328125 C42.43800249 5.80424303 35.90039251 3.8157325 26.3515625 5.1328125 C24.7015625 5.7928125 23.0515625 6.4528125 21.3515625 7.1328125 C21.0215625 38.8128125 20.6915625 70.4928125 20.3515625 103.1328125 C19.6915625 103.1328125 19.0315625 103.1328125 18.3515625 103.1328125 C17.8565625 55.6128125 17.8565625 55.6128125 17.3515625 7.1328125 C7.90255259 3.35320853 -3.9450051 3.4293801 -11.6484375 11.1328125 Z " fill="#0A0804" transform="translate(55.6484375,9.8671875)"/>
<path d="M0 0 C0.99 0.33 1.98 0.66 3 1 C4.80795432 5.0916861 5.21156222 8.55719328 5 13 C-4.3937184 16.61296862 -14.0722947 16.12709722 -24 16 C-23.67 14.35 -23.34 12.7 -23 11 C-12.11 10.505 -12.11 10.505 -1 10 C-1.33 7.03 -1.66 4.06 -2 1 C-1.34 0.67 -0.68 0.34 0 0 Z " fill="#DFAE6D" transform="translate(97,113)"/>
<path d="M0 0 C1.32 0 2.64 0 4 0 C3.82097271 7.87720077 -0.58232582 14.96093051 -5.58984375 20.87890625 C-6.28787109 21.43384766 -6.28787109 21.43384766 -7 22 C-9.1875 21.6875 -9.1875 21.6875 -11 21 C-10.35541706 17.28929283 -8.69315211 14.74031774 -6.625 11.625 C-4.14914157 7.82732803 -1.89136002 4.11648946 0 0 Z " fill="#DFAE6D" transform="translate(135,60)"/>
<path d="M0 0 C2.43931365 0.39175273 3.73170598 0.7372236 5.51953125 2.48828125 C5.94621094 3.09027344 6.37289063 3.69226563 6.8125 4.3125 C7.25207031 4.90675781 7.69164062 5.50101562 8.14453125 6.11328125 C9.21856546 8.48204164 8.86324141 9.60093031 8 12 C4 12 4 12 2.48046875 10.64453125 C-1.04173544 5.65385522 -1.04173544 5.65385522 -0.8125 2.0625 C-0.544375 1.381875 -0.27625 0.70125 0 0 Z " fill="#FFE7BF" transform="translate(17,70)"/>
<path d="M0 0 C1.32 0.66 2.64 1.32 4 2 C3.34 3.32 2.68 4.64 2 6 C0.68 5.67 -0.64 5.34 -2 5 C-1.125 1.125 -1.125 1.125 0 0 Z " fill="#FFE4B9" transform="translate(12,59)"/>
<path d="M0 0 C0.66 0.33 1.32 0.66 2 1 C-1.3 4.3 -4.6 7.6 -8 11 C-8 7.0234755 -6.61988497 5.9109833 -4 3 C-1.75 1.1875 -1.75 1.1875 0 0 Z " fill="#CAA366" transform="translate(27,27)"/>
<path d="M0 0 C0.66 0.33 1.32 0.66 2 1 C1.01 1.7734375 1.01 1.7734375 0 2.5625 C-2.65637543 5.79995755 -2.31342132 7.92552281 -2 12 C-4.31361802 8.52957297 -4.51020728 7.08165827 -4 3 C-2 1.125 -2 1.125 0 0 Z " fill="#C29D62" transform="translate(48,18)"/>
</svg>
